<?xml version="1.0" encoding="UTF-8"?>
<!DOCTYPE svg PUBLIC "-//W3C//DTD SVG 1.1//EN" "http://www.w3.org/Graphics/SVG/1.1/DTD/svg11.dtd">
<!-- Creator: CorelDRAW X8 -->
<svg xmlns="http://www.w3.org/2000/svg" xml:space="preserve" width="56px" height="88px" version="1.1" style="shape-rendering:geometricPrecision; text-rendering:geometricPrecision; image-rendering:optimizeQuality; fill-rule:evenodd; clip-rule:evenodd"
viewBox="0 0 56 88"
 xmlns:xlink="http://www.w3.org/1999/xlink">
 <defs>
  <style type="text/css">
   <![CDATA[
    .fil0 {fill:white}
   ]]>
  </style>
 </defs>
 <g id="Слой_x0020_1">
  <metadata id="CorelCorpID_0Corel-Layer"/>
  <path class="fil0" d="M49 88c4,0 7,-3 7,-7l0 -60 0 -2 0 -18c0,-1 0,-1 -1,-1l-7 0c-1,0 -1,0 -1,1l0 11 -40 0c-4,0 -7,3 -7,7l0 62c0,4 3,7 7,7 14,0 28,0 42,0zm-37 -68l32 0c2,0 4,2 4,4l0 32c0,2 -2,4 -4,4l-32 0c-2,0 -4,-2 -4,-4l0 -32c0,-2 2,-4 4,-4zm-3 47l7 0c1,0 1,0 1,0l0 5c0,0 0,1 -1,1l-7 0c-1,0 -1,-1 -1,-1l0 -5c0,0 0,0 1,0zm15 0l8 0c0,0 0,0 0,0l0 5c0,0 0,1 0,1l-8 0c0,0 0,-1 0,-1l0 -5c0,0 0,0 0,0zm16 0l7 0c1,0 1,0 1,0l0 5c0,0 0,1 -1,1l-7 0c-1,0 -1,-1 -1,-1l0 -5c0,0 0,0 1,0zm-31 9l7 0c1,0 1,0 1,1l0 5c0,0 0,0 -1,0l-7 0c-1,0 -1,0 -1,0l0 -5c0,-1 0,-1 1,-1zm15 0l8 0c0,0 0,0 0,1l0 5c0,0 0,0 0,0l-8 0c0,0 0,0 0,0l0 -5c0,-1 0,-1 0,-1zm16 0l7 0c1,0 1,0 1,1l0 5c0,0 0,0 -1,0l-7 0c-1,0 -1,0 -1,0l0 -5c0,-1 0,-1 1,-1z"/>
 </g>
</svg>
