<?xml version="1.0" encoding="UTF-8"?>
<!DOCTYPE svg PUBLIC "-//W3C//DTD SVG 1.1//EN" "http://www.w3.org/Graphics/SVG/1.1/DTD/svg11.dtd">
<!-- Creator: CorelDRAW X8 -->
<svg xmlns="http://www.w3.org/2000/svg" xml:space="preserve" width="144px" height="131px" version="1.1" style="shape-rendering:geometricPrecision; text-rendering:geometricPrecision; image-rendering:optimizeQuality; fill-rule:evenodd; clip-rule:evenodd"
viewBox="0 0 144 131"
 xmlns:xlink="http://www.w3.org/1999/xlink">
 <defs>
  <style type="text/css">
   <![CDATA[
    .fil0 {fill:white;fill-rule:nonzero}
   ]]>
  </style>
 </defs>
 <g id="Слой_x0020_1">
  <metadata id="CorelCorpID_0Corel-Layer"/>
  <path class="fil0" d="M72 117c19,-13 34,-26 44,-39 11,-14 16,-26 16,-37l0 0c0,-8 -3,-15 -8,-21 -6,-5 -13,-8 -21,-8 -6,0 -11,1 -15,4 -5,2 -8,6 -11,10l-5 9 -5 -9c-3,-4 -6,-8 -11,-10 -4,-3 -9,-4 -15,-4 -8,0 -15,3 -21,8 -5,6 -8,13 -8,21l0 0c0,11 5,23 16,37 10,13 25,26 44,39zm53 -31c-11,14 -27,28 -50,43l-3 2 -3 -2c-23,-15 -39,-29 -50,-43 -13,-16 -19,-32 -19,-44l0 -1c0,-11 5,-21 12,-29 8,-7 18,-12 29,-12 8,0 15,2 21,5 4,3 7,5 10,8 3,-3 6,-5 10,-8 6,-3 13,-5 21,-5 11,0 21,5 29,12 7,8 12,18 12,29l0 1c0,12 -6,28 -19,44z"/>
 </g>
</svg>
