<?xml version="1.0" encoding="UTF-8"?>
<!DOCTYPE svg PUBLIC "-//W3C//DTD SVG 1.1//EN" "http://www.w3.org/Graphics/SVG/1.1/DTD/svg11.dtd">
<!-- Creator: CorelDRAW X8 -->
<svg xmlns="http://www.w3.org/2000/svg" xml:space="preserve" width="154px" height="154px" version="1.1" style="shape-rendering:geometricPrecision; text-rendering:geometricPrecision; image-rendering:optimizeQuality; fill-rule:evenodd; clip-rule:evenodd"
viewBox="0 0 154 154"
 xmlns:xlink="http://www.w3.org/1999/xlink">
 <defs>
  <style type="text/css">
   <![CDATA[
    .fil0 {fill:red}
   ]]>
  </style>
 </defs>
 <g id="Слой_x0020_1">
  <metadata id="CorelCorpID_0Corel-Layer"/>
  <path class="fil0" d="M77 22c7,0 13,6 13,13 0,8 -6,13 -13,13 -7,0 -13,-5 -13,-13 0,-7 6,-13 13,-13zm0 -22c21,0 41,9 54,23 14,13 23,33 23,54 0,21 -9,41 -23,54 -13,14 -33,23 -54,23 -21,0 -41,-9 -54,-23 -14,-13 -23,-33 -23,-54 0,-21 9,-41 23,-54 13,-14 33,-23 54,-23zm46 31c-12,-12 -28,-19 -46,-19 -18,0 -34,7 -46,19 -12,12 -19,28 -19,46 0,18 7,34 19,46 12,12 28,19 46,19 18,0 34,-7 46,-19 12,-12 19,-28 19,-46 0,-18 -7,-34 -19,-46zm-46 101c-3,0 -6,-2 -6,-5l-6 -20 -15 0 8 -21c-1,1 -2,1 -4,1 -3,0 -5,-2 -5,-5 0,-1 0,-1 0,-2l11 -23c0,-2 2,-3 4,-3 1,0 2,0 3,0 3,2 6,3 10,3 4,0 7,-1 10,-3 1,0 2,0 3,0 2,0 4,1 4,3l11 23c0,1 0,1 0,2 0,3 -2,5 -5,5 -2,0 -3,0 -4,-1l8 21 -15 0 -6 20c0,3 -3,5 -6,5z"/>
 </g>
</svg>
