<?xml version="1.0" encoding="UTF-8"?>
<!DOCTYPE svg PUBLIC "-//W3C//DTD SVG 1.1//EN" "http://www.w3.org/Graphics/SVG/1.1/DTD/svg11.dtd">
<!-- Creator: CorelDRAW X8 -->
<svg xmlns="http://www.w3.org/2000/svg" xml:space="preserve" width="9.4854mm" height="9.4854mm" version="1.1" style="shape-rendering:geometricPrecision; text-rendering:geometricPrecision; image-rendering:optimizeQuality; fill-rule:evenodd; clip-rule:evenodd"
viewBox="0 0 8 8"
 xmlns:xlink="http://www.w3.org/1999/xlink">
 <defs>
  <style type="text/css">
   <![CDATA[
    .fil0 {fill:#147EE2}
   ]]>
  </style>
 </defs>
 <g id="Слой_x0020_1">
  <metadata id="CorelCorpID_0Corel-Layer"/>
  <path class="fil0" d="M4 4c1,0 1,0 1,0 0,1 0,1 -1,1 0,0 0,0 0,-1 0,0 0,0 0,0zm-2 4l-2 0 1 -2c-1,0 -1,-1 -1,-2 0,-2 2,-4 4,-4 3,0 4,2 4,4 0,3 -1,4 -4,4 0,0 -1,0 -2,0zm4 -4c1,0 1,0 1,0 0,1 0,1 -1,1 0,0 0,0 0,-1 0,0 0,0 0,0zm-4 0c1,0 1,0 1,0 0,1 0,1 -1,1 0,0 0,0 0,-1 0,0 0,0 0,0z"/>
 </g>
</svg>
