<?xml version="1.0" encoding="UTF-8"?>
<!DOCTYPE svg PUBLIC "-//W3C//DTD SVG 1.1//EN" "http://www.w3.org/Graphics/SVG/1.1/DTD/svg11.dtd">
<!-- Creator: CorelDRAW X8 -->
<svg xmlns="http://www.w3.org/2000/svg" xml:space="preserve" width="113px" height="90px" version="1.1" style="shape-rendering:geometricPrecision; text-rendering:geometricPrecision; image-rendering:optimizeQuality; fill-rule:evenodd; clip-rule:evenodd"
viewBox="0 0 113 90"
 xmlns:xlink="http://www.w3.org/1999/xlink">
 <defs>
  <style type="text/css">
   <![CDATA[
    .fil0 {fill:white}
   ]]>
  </style>
 </defs>
 <g id="Слой_x0020_1">
  <metadata id="CorelCorpID_0Corel-Layer"/>
  <path class="fil0" d="M7 90l99 0c4,0 7,-3 7,-6l0 -63c0,-4 -3,-7 -7,-7l-17 0 -6 -11c-1,-2 -3,-3 -5,-3l-4 0 -20 0 -4 0c-2,0 -4,1 -5,3l-6 11 -9 0 -2 -3c0,-1 -2,-2 -3,-3 0,0 0,0 0,0l0 0 -12 0 0 0c0,0 0,0 0,0 -1,1 -3,2 -3,3l-2 3 -1 0c-4,0 -7,3 -7,7l0 63c0,3 3,6 7,6zm56 -69c16,0 29,13 29,29 0,16 -13,30 -29,30 -16,0 -30,-14 -30,-30 0,-16 14,-29 30,-29zm0 8c12,0 21,9 21,21 0,12 -9,22 -21,22 -12,0 -21,-10 -21,-22 0,-12 9,-21 21,-21z"/>
 </g>
</svg>
